<svg xmlns="http://www.w3.org/2000/svg" viewBox="0 0 90 90"><defs><style>.cls-1{fill:#fff;}.cls-2{fill:#ffa400;}.cls-3{fill:#e6e6e6;}.cls-4{fill:#404041;}.cls-5{fill:#2b2b2b;}</style></defs><title>アセット 1</title><g id="レイヤー_2" data-name="レイヤー 2"><g id="レイヤー_2-2" data-name="レイヤー 2"><rect class="cls-1" width="90" height="90"/></g><g id="レイヤー_1-2" data-name="レイヤー 1"><g id="penguin"><path class="cls-2" d="M51.86,28.64a7.39,7.39,0,0,1,5.32-8l.6-.18h1.67l13.62.68a1.67,1.67,0,0,1,1,3L61,34.2a7.47,7.47,0,0,1-1.78.6h0A7.23,7.23,0,0,1,51.86,28.64Z"/><path class="cls-3" d="M61.25,42.32,61,35.87h0l.22,6.46c2.54,3,14.58,18.1,14.58,37.6v1.94A3.33,3.33,0,0,1,72.44,85H17.83c0-3.79,23.44-9.91,23.44-19.73C41.28,48.63,54.64,43.73,61.25,42.32Z"/><path class="cls-4" d="M61,34.2c-3.85.13-7.43-.9-8-5.12a7.93,7.93,0,0,1,5.73-8.4l.64-.19A23.33,23.33,0,0,0,30.92,5.9,23,23,0,0,0,14.25,28.15v.12c0,2.11-.19,33.58,0,53.46,0,1.82,2,3.26,3.79,3.26h3.42A19.77,19.77,0,0,0,41.28,65.27h0c0-16.65,13.36-21.54,20-23Z"/><path class="cls-1" d="M33.86,24.17a6.7,6.7,0,1,0,6.73-6.67h0a6.68,6.68,0,0,0-6.7,6.66Zm2.91,0a3.79,3.79,0,1,1,3.81,3.77h0a3.78,3.78,0,0,1-3.79-3.77Z"/><ellipse class="cls-5" cx="40.56" cy="24.17" rx="3.79" ry="3.77"/></g></g></g></svg>