<svg xmlns="http://www.w3.org/2000/svg" viewBox="0 0 436.39 437.89"><defs><style>.cls-1{fill:#fff;}.cls-2{fill:#ffcb9d;}.cls-3{fill:#ffe9c8;}.cls-4{fill:#ffba7e;}.cls-5{fill:#ffdca7;}.cls-6{fill:#433f43;}</style></defs><title>アセット 14</title><g id="レイヤー_2" data-name="レイヤー 2"><g id="レイヤー_2-2" data-name="レイヤー 2"><rect class="cls-1" width="436.39" height="437.89"/></g><g id="レイヤー_1-2" data-name="レイヤー 1"><path class="cls-2" d="M300.55,360.8c6,25,16.91,58.25,31.95,58.25,11.73,0,19.5-23.33,24.38-47.28C328.58,375.51,305.23,363.44,300.55,360.8Z"/><path class="cls-2" d="M158.29,349.61s-28.21,16-59.67,12.67c6.11,24.82,16.85,56.77,31.59,56.77,15.41,0,24-40.23,28.16-69.28Z"/><path class="cls-3" d="M46,199.22S14.17,142,46,97.63c30.43-42.42,83.48-26.81,83.48-26.81s19-42.75,61-49.36c46-7.23,69.95,29.85,69.95,29.85s49.42-24.41,85.69,4.49c36.07,28.74,26.44,66.83,26.44,66.83s49.53,2,61.36,48.06c11.07,43.09-18.8,71.38-18.8,71.38s37.55,70.12-18.6,113c-47,35.88-96.84,5.25-96.84,5.25S275.07,395.18,216,387.9c-41-5.06-57.68-38.29-57.68-38.29S98.5,383.59,56,342.26C8.2,295.9,46,199.22,46,199.22Z"/><path class="cls-4" d="M158.37,349.77l-.09-.16s-28.2,16-59.66,12.67c1.92,7.8,4.29,16.28,7.1,24.27,21.09.42,39.77-7,48-10.84C155.68,366.94,157.2,357.91,158.37,349.77Z"/><path class="cls-4" d="M300.55,360.8a263.75,263.75,0,0,0,8.19,27.77,96.2,96.2,0,0,0,41.74,7.61,197.39,197.39,0,0,0,6.4-24.41C328.58,375.51,305.23,363.44,300.55,360.8Z"/><path class="cls-5" d="M372.57,98.8h.11a2.21,2.21,0,0,1-.05-.25Z"/><path class="cls-5" d="M396.52,331.23c-47,35.88-96.83,5.25-96.83,5.25s-24.63,34.88-83.72,27.6c-41-5.06-57.69-38.29-57.69-38.29S98.5,359.76,56,318.44C40.36,303.3,33.89,282.8,32.24,262c-2,28,2.11,59.25,23.71,80.23,42.55,41.32,102.33,7.34,102.33,7.34S174.94,382.84,216,387.9c59.09,7.28,83.72-27.6,83.72-27.6s49.83,30.64,96.83-5.25c28.91-22.06,33-51.34,30.14-74.57C424.32,298,416.14,316.25,396.52,331.23Z"/><path class="cls-2" d="M158,193.75c-7.92-38.52-50.69-58.41-85.64-40.63-32.63,16.6-75.19,44-72.22,73.15,3.63,35.58,56.4,50.59,102.85,44.19,36.21-5,61.8-38.95,55.33-75C158.23,194.86,158.13,194.3,158,193.75Z"/><path class="cls-4" d="M158.19,194.7A65.27,65.27,0,0,1,103,246.64c-42.24,5.81-89.7-6.07-100.69-35A31.52,31.52,0,0,0,.15,226.27c3.63,35.58,56.4,50.59,102.85,44.19,36.21-5,61.8-38.95,55.33-75C158.29,195.17,158.24,194.94,158.19,194.7Z"/><path class="cls-6" d="M94.14,182.59c-7.49,0-13.35,7.31-13.35,16.63s5.86,16.62,13.35,16.62,13.34-7.3,13.34-16.62S101.62,182.59,94.14,182.59Z"/><path class="cls-2" d="M132.33,126.38S128.1,98.15,155.06,99.6c26.34,1.41,26.12,34.1,7.42,40.08Z"/></g></g></svg>