<svg xmlns="http://www.w3.org/2000/svg" viewBox="0 0 510.8 510.8"><defs><style>.cls-1{fill:#fff;}.cls-2{fill:#ffcb9d;}.cls-3{fill:#ffe9c8;}.cls-4{fill:#ffba7e;}.cls-5{fill:#ffdca7;}.cls-6{fill:#433f43;}</style></defs><title>アセット 15</title><g id="レイヤー_2" data-name="レイヤー 2"><g id="レイヤー_2-2" data-name="レイヤー 2"><rect class="cls-1" width="510.8" height="510.8"/></g><g id="レイヤー_1-2" data-name="レイヤー 1"><path class="cls-2" d="M337.85,397.15c6,25,16.91,58.25,32,58.25,11.72,0,19.49-23.33,24.38-47.28C365.88,411.86,342.54,399.79,337.85,397.15Z"/><path class="cls-2" d="M195.59,386s-28.21,16-59.67,12.68c6.12,24.81,16.85,56.76,31.59,56.76,15.41,0,24-40.23,28.16-69.28Z"/><path class="cls-3" d="M83.28,235.57s-31.8-57.26,0-101.59c30.43-42.42,83.48-26.81,83.48-26.81s19-42.74,61-49.36c46-7.23,70,29.85,70,29.85s49.43-24.41,85.69,4.49C419.51,120.89,409.87,159,409.87,159s49.53,2,61.37,48.06c11.07,43.1-18.8,71.39-18.8,71.39s37.54,70.11-18.61,113c-47,35.88-96.84,5.25-96.84,5.25s-24.62,34.88-83.71,27.6c-41-5.06-57.69-38.29-57.69-38.29s-59.79,34-102.34-7.35C45.51,332.25,83.28,235.57,83.28,235.57Z"/><path class="cls-4" d="M195.67,386.12l-.08-.16s-28.21,16-59.67,12.68c1.92,7.79,4.3,16.28,7.11,24.26,21.09.42,39.76-7,48-10.84C193,403.29,194.5,394.27,195.67,386.12Z"/><path class="cls-4" d="M337.85,397.15a261.49,261.49,0,0,0,8.2,27.77,96.14,96.14,0,0,0,41.74,7.61,201,201,0,0,0,6.4-24.41C365.88,411.86,342.54,399.79,337.85,397.15Z"/><path class="cls-5" d="M409.87,135.15H410c0-.08,0-.17-.05-.25A1.6,1.6,0,0,1,409.87,135.15Z"/><path class="cls-5" d="M433.83,367.58c-47,35.88-96.84,5.25-96.84,5.25s-24.62,34.88-83.71,27.6c-41-5.06-57.69-38.29-57.69-38.29s-59.79,34-102.34-7.35c-15.59-15.14-22.06-35.64-23.7-56.4-2,28,2.1,59.25,23.7,80.23C135.8,419.94,195.59,386,195.59,386s16.65,33.24,57.69,38.29c59.09,7.28,83.71-27.6,83.71-27.6s49.83,30.64,96.84-5.25c28.91-22.06,33-51.34,30.13-74.57C461.62,334.3,453.45,352.61,433.83,367.58Z"/><path class="cls-2" d="M195.31,230.1c-7.91-38.52-50.69-58.41-85.64-40.63-32.63,16.6-75.19,44-72.22,73.15,3.63,35.58,56.4,50.59,102.85,44.2,36.21-5,61.8-39,55.34-75.06C195.54,231.21,195.43,230.65,195.31,230.1Z"/><path class="cls-4" d="M195.5,231.05A65.28,65.28,0,0,1,140.3,283c-42.23,5.82-89.7-6.07-100.69-35a31.65,31.65,0,0,0-2.16,14.66c3.63,35.58,56.4,50.59,102.85,44.2,36.21-5,61.8-39,55.34-75.06C195.59,231.52,195.54,231.29,195.5,231.05Z"/><path class="cls-6" d="M131.44,219c-7.48,0-13.35,7.3-13.35,16.62s5.87,16.62,13.35,16.62,13.34-7.3,13.34-16.62S138.92,219,131.44,219Z"/><path class="cls-2" d="M169.63,162.73S165.4,134.51,192.37,136c26.33,1.42,26.11,34.1,7.41,40.09Z"/></g></g></svg>