<svg xmlns="http://www.w3.org/2000/svg" viewBox="0 0 61.63 80.02"><defs><style>.cls-1{fill:#fff568;}.cls-2{fill:#e6e6e6;}.cls-3{fill:#00612e;}.cls-4{fill:#fff;}.cls-5{fill:#2b2b2b;}</style></defs><title>レイヤー 1</title><g id="レイヤー_2" data-name="レイヤー 2"><g id="レイヤー_1-2" data-name="レイヤー 1"><g id="penguin"><path class="cls-1" d="M37.69,23.66a7.4,7.4,0,0,1,5.32-8l.6-.18h1.67l13.62.68a1.67,1.67,0,0,1,1,3L46.83,29.22a7.77,7.77,0,0,1-1.78.6h0A7.23,7.23,0,0,1,37.69,23.66Z"/><path class="cls-2" d="M47.08,37.34l-.25-6.45h0l.22,6.46c2.54,3,14.58,18.1,14.58,37.6v1.94A3.32,3.32,0,0,1,58.27,80H3.66c0-3.79,23.44-9.91,23.44-19.73C27.11,43.65,40.47,38.75,47.08,37.34Z"/><path class="cls-3" d="M46.83,29.22c-3.85.13-7.43-.9-8-5.12a7.93,7.93,0,0,1,5.73-8.4l.64-.19A23.33,23.33,0,0,0,16.75.92,23,23,0,0,0,.08,23.17v.12c0,2.11-.19,33.58,0,53.46,0,1.82,2,3.26,3.79,3.26H7.29A19.76,19.76,0,0,0,27.11,60.29h0c0-16.65,13.36-21.54,20-23Z"/><path class="cls-4" d="M19.69,19.19a6.7,6.7,0,1,0,6.73-6.67h0a6.69,6.69,0,0,0-6.7,6.66Zm2.91,0A3.79,3.79,0,1,1,26.41,23h0a3.79,3.79,0,0,1-3.79-3.77Z"/><ellipse class="cls-5" cx="26.39" cy="19.19" rx="3.79" ry="3.77"/></g></g></g></svg>