<svg height="512pt" viewBox="-73 0 512 512" width="512pt" xmlns="http://www.w3.org/2000/svg"><path d="m304.117188 42.140625c0 23.269531-18.863282 42.136719-42.136719 42.136719-23.273438 0-42.140625-18.867188-42.140625-42.136719 0-23.273437 18.867187-42.140625 42.140625-42.140625 23.273437 0 42.136719 18.867188 42.136719 42.140625zm0 0" fill="#80391b"/><path d="m291.40625 512c-13.476562 0-24.398438-10.925781-24.398438-24.398438v-195.023437c0-13.476563 10.921876-24.398437 24.398438-24.398437 13.472656 0 24.398438 10.921874 24.398438 24.398437v195.023437c0 13.472657-10.925782 24.398438-24.398438 24.398438zm0 0" fill="#55696e"/><path d="m232.519531 511.96875c-13.472656 0-24.398437-10.925781-24.398437-24.398438v-195.023437c0-13.476563 10.925781-24.398437 24.398437-24.398437 13.476563 0 24.398438 10.921874 24.398438 24.398437v195.023437c0 13.472657-10.921875 24.398438-24.398438 24.398438zm0 0" fill="#748488"/><path d="m316.558594 97.710938c-12.378906 0-96.78125 0-109.15625 0-26.8125 0-48.734375 21.476562-48.867188 47.976562v148.90625c0 11.226562 9.105469 20.332031 20.332032 20.332031 11.230468 0 20.332031-9.105469 20.332031-20.332031v-148.804688c.019531-3.878906 3.929687-7.414062 8.203125-7.414062h.726562v154.1875h107.699219v-154.1875h.730469c4.269531 0 8.179687 3.535156 8.199218 7.3125v148.800781c0 10.949219 8.414063 20.371094 19.351563 20.882813 11.675781.550781 21.3125-8.753906 21.3125-20.308594v-149.476562c-.132813-26.398438-22.050781-47.875-48.863281-47.875zm0 0" fill="#80391b"/><path d="m316.558594 97.710938h-32.542969c.542969 12.769531-11.3125 23.640624-23.6875 23.640624-13.261719 0-23.085937-10.828124-23.679687-23.640624h-29.246094c-26.8125 0-48.734375 21.476562-48.867188 47.976562-.109375 14.859375-.101562 38.554688-.101562 38.554688h40.765625v-38.453126c.019531-3.878906 3.929687-7.414062 8.203125-7.414062h.730468v154.1875h107.695313v-154.1875h.730469c4.273437 0 8.183594 3.535156 8.199218 7.3125v38.554688c19.007813-.003907 38.492188-.0625 40.664063 0v-38.65625c-.132813-26.398438-22.050781-47.875-48.863281-47.875zm0 0" fill="#fa503c"/><path d="m204.996094 47.425781c0 24.695313-20.019532 44.71875-44.714844 44.71875s-44.71875-20.023437-44.71875-44.71875c0-24.695312 20.023438-44.714843 44.71875-44.714843s44.714844 20.019531 44.714844 44.714843zm0 0" fill="#f7a98f"/><path d="m119.3125 488.902344-5.679688-112.664063-17.324218-100.398437c-2.285156-13.230469 6.589844-25.808594 19.820312-28.09375 13.234375-2.28125 25.808594 6.59375 28.09375 19.824218l17.574219 101.84375c.167969.964844.277344 1.9375.324219 2.914063l5.753906 114.128906c.675781 13.410157-9.648438 24.828125-23.058594 25.503907-13.367187.675781-24.828125-9.605469-25.503906-23.058594zm0 0" fill="#414b82"/><path d="m14.824219 510.0625c-12.359375-5.242188-18.128907-19.511719-12.886719-31.875l43.96875-103.675781-10.050781-94.324219s1.378906-23.535156 21.808593-25.597656c13.363282-1.351563 25.320313 8.265625 26.734376 21.617187l10.523437 99.445313c.433594 4.105468-.183594 8.25-1.796875 12.050781l-46.425781 109.46875c-5.214844 12.296875-19.453125 18.15625-31.875 12.890625zm0 0" fill="#5f6e9b"/><path d="m149.082031 295.691406-113.226562-15.503906 21.023437-153.550781c2.261719-16.53125 17.496094-28.097657 34.027344-25.832031l53.371094 7.304687c16.527344 2.265625 28.09375 17.5 25.828125 34.027344zm0 0" fill="#64afff"/><path d="m183.851562 179.308594-79.5-28c-10.9375-3.855469-16.683593-15.84375-12.832031-26.785156 3.855469-10.9375 15.84375-16.683594 26.785157-12.832032l55.664062 19.605469 10.28125-66.027344c1.785156-11.460937 12.53125-19.300781 23.984375-17.519531 11.457031 1.785156 19.300781 12.523438 17.515625 23.984375l-14.171875 91c-2.019531 12.96875-15.335937 20.9375-27.726563 16.574219zm0 0" fill="#ffb69e"/><path d="m159.144531 126.074219-40.839843-14.382813c-10.941407-3.851562-22.933594 1.894532-26.785157 12.832032-3.851562 10.941406 1.894531 22.929687 12.832031 26.785156l42.835938 15.085937zm0 0" fill="#4699f2"/></svg>