<svg xmlns="http://www.w3.org/2000/svg" viewBox="0 0 511 511"><defs><style>.cls-1{fill:#fff;}.cls-2{fill:#ffcb9d;}.cls-3{fill:#ffe9c8;}.cls-4{fill:#ffba7e;}.cls-5{fill:#ffdca7;}.cls-6{fill:#433f43;}</style></defs><title>アセット 13</title><g id="レイヤー_2" data-name="レイヤー 2"><g id="レイヤー_2-2" data-name="レイヤー 2"><rect class="cls-1" width="511" height="511"/></g><g id="レイヤー_1-2" data-name="レイヤー 1"><path class="cls-2" d="M351.93,421c7.08,29.18,19.8,68,37.42,68,13.73,0,22.83-27.23,28.55-55.18C384.75,438.21,357.42,424.12,351.93,421Z"/><path class="cls-2" d="M185.35,408s-33,18.71-69.87,14.79c7.16,29,19.73,66.25,37,66.25,18,0,28.08-46.95,33-80.85Z"/><path class="cls-3" d="M53.84,232.48s-37.24-66.82,0-118.55c35.63-49.5,97.75-31.29,97.75-31.29s22.22-49.88,71.46-57.59C276.87,16.61,305,59.87,305,59.87s57.88-28.48,100.34,5.24c42.25,33.55,31,78,31,78s58,2.35,71.85,56.09c13,50.29-22,83.3-22,83.3s44,81.82-21.79,131.84c-55.05,41.87-113.39,6.13-113.39,6.13s-28.84,40.7-98,32.2c-48.05-5.9-67.55-44.68-67.55-44.68s-70,39.65-119.83-8.57C9.61,345.3,53.84,232.48,53.84,232.48Z"/><path class="cls-4" d="M185.45,408.17l-.1-.19s-33,18.71-69.87,14.79c2.25,9.09,5,19,8.32,28.32,24.7.48,46.56-8.14,56.25-12.65C182.3,428.2,184.07,417.67,185.45,408.17Z"/><path class="cls-4" d="M351.93,421a307.38,307.38,0,0,0,9.6,32.41c10.61,4.45,28.31,10,48.87,8.88a232.7,232.7,0,0,0,7.5-28.49C384.75,438.21,357.42,424.12,351.93,421Z"/><path class="cls-5" d="M436.27,115.3h.12c0-.1,0-.2-.05-.3C436.3,115.2,436.27,115.3,436.27,115.3Z"/><path class="cls-5" d="M464.31,386.53c-55,41.87-113.39,6.12-113.39,6.12s-28.83,40.71-98,32.21c-48.05-5.9-67.55-44.68-67.55-44.68s-70,39.65-119.83-8.57C47.26,353.94,39.68,330,37.76,305.79c-2.34,32.64,2.46,69.14,27.76,93.62C115.34,447.63,185.35,408,185.35,408s19.5,38.78,67.55,44.68c69.19,8.5,98-32.2,98-32.2s58.35,35.75,113.39-6.13c33.86-25.75,38.63-59.92,35.29-87C496.86,347.7,487.29,369.06,464.31,386.53Z"/><path class="cls-2" d="M185,226.09c-9.28-44.94-59.36-68.16-100.29-47.41-38.21,19.37-88,51.39-84.57,85.37,4.25,41.52,66.05,59,120.44,51.57C163,309.8,193,270.16,185.4,228,185.29,227.39,185.16,226.74,185,226.09Z"/><path class="cls-4" d="M185.24,227.2c-6,30.89-31.51,56.07-64.63,60.62-49.46,6.78-105-7.09-117.9-40.88A36.71,36.71,0,0,0,.17,264.05c4.25,41.52,66.05,59,120.44,51.57C163,309.8,193,270.16,185.4,228,185.35,227.76,185.29,227.48,185.24,227.2Z"/><path class="cls-6" d="M110.23,213.08c-8.76,0-15.63,8.52-15.63,19.4s6.87,19.4,15.63,19.4,15.63-8.52,15.63-19.4S119,213.08,110.23,213.08Z"/><path class="cls-2" d="M155,147.48s-4.95-32.94,26.63-31.25c30.83,1.65,30.57,39.79,8.67,46.78Z"/></g></g></svg>