<svg height="511pt" viewBox="0 -23 511.99996 511" width="511pt" xmlns="http://www.w3.org/2000/svg"><path d="m352.621094 398.359375c7.089844 29.238281 19.839844 68.113281 37.488281 68.113281 13.761719 0 22.875-27.277344 28.605469-55.289062-33.210938 4.378906-60.597656-9.738282-66.09375-12.824219zm0 0" fill="#ffcb9d"/><path d="m185.710938 385.277344s-33.097657 18.742187-70.003907 14.820312c7.171875 29.015625 19.765625 66.375 37.0625 66.375 18.074219 0 28.132813-47.042968 33.039063-81.007812-.058594-.109375-.097656-.1875-.097656-.1875zm0 0" fill="#ffcb9d"/><path d="m53.941406 209.433594s-37.3125-66.949219 0-118.78125c35.703125-49.597656 97.949219-31.347656 97.949219-31.347656s22.257813-49.980469 71.597656-57.710938c53.921875-8.453125 82.070313 34.894531 82.070313 34.894531s57.988281-28.539062 100.535156 5.25c42.328125 33.609375 31.027344 78.140625 31.027344 78.140625s58.109375 2.355469 71.992187 56.199219c12.988281 50.386719-22.054687 83.464844-22.054687 83.464844s44.050781 81.980469-21.832032 132.097656c-55.152343 41.953125-113.613281 6.136719-113.613281 6.136719s-28.890625 40.785156-98.222656 32.269531c-48.136719-5.914063-67.679687-44.769531-67.679687-44.769531s-70.144532 39.726562-120.066407-8.589844c-56.019531-54.210938-11.703125-167.253906-11.703125-167.253906zm0 0" fill="#ffe9c8"/><path d="m185.808594 385.464844c-.058594-.109375-.101563-.1875-.101563-.1875s-33.09375 18.742187-70 14.820312c2.25 9.109375 5.035157 19.035156 8.332031 28.371094 24.746094.488281 46.65625-8.152344 56.363282-12.675781 2.25-10.253907 4.03125-20.804688 5.40625-30.328125zm0 0" fill="#ffba7e"/><path d="m352.621094 398.359375c2.507812 10.339844 5.726562 21.875 9.613281 32.476563 10.636719 4.460937 28.363281 9.996093 48.972656 8.894531 2.972657-8.617188 5.457031-18.53125 7.507813-28.546875-33.210938 4.378906-60.597656-9.738282-66.09375-12.824219zm0 0" fill="#ffba7e"/><path d="m437.121094 92.023438s.050781.003906.125.007812c-.019532-.097656-.039063-.199219-.054688-.296875-.042968.191406-.070312.289063-.070312.289063zm0 0" fill="#ffdca7"/><path d="m465.222656 363.785156c-55.152344 41.957032-113.613281 6.136719-113.613281 6.136719s-28.890625 40.785156-98.21875 32.269531c-48.140625-5.910156-67.683594-44.769531-67.683594-44.769531s-70.140625 39.726563-120.0625-8.585937c-18.292969-17.703126-25.882812-41.679688-27.816406-65.945313-2.335937 32.699219 2.46875 69.273437 27.816406 93.800781 49.921875 48.3125 120.0625 8.585938 120.0625 8.585938s19.542969 38.859375 67.683594 44.769531c69.328125 8.515625 98.21875-32.269531 98.21875-32.269531s58.460937 35.820312 113.613281-6.136719c33.917969-25.796875 38.699219-60.035156 35.355469-87.191406-2.746094 20.429687-12.335937 41.828125-35.355469 59.335937zm0 0" fill="#ffdca7"/><path d="m185.386719 203.035156c-9.289063-45.03125-59.472657-68.292968-100.484375-47.503906-38.28125 19.40625-88.214844 51.488281-84.730469 85.535156 4.257813 41.597656 66.175781 59.144532 120.671875 51.671875 42.484375-5.828125 72.503906-45.550781 64.921875-87.757812-.117187-.648438-.242187-1.296875-.378906-1.945313zm0 0" fill="#ffcb9d"/><path d="m185.601562 204.148438c-5.992187 30.945312-31.570312 56.179687-64.757812 60.730468-49.554688 6.800782-105.242188-7.097656-118.132812-40.953125-2.175782 5.621094-3.128907 11.351563-2.539063 17.140625 4.257813 41.597656 66.175781 59.144532 120.671875 51.671875 42.484375-5.828125 72.503906-45.550781 64.921875-87.757812-.050781-.277344-.109375-.554688-.164063-.832031zm0 0" fill="#ffba7e"/><path d="m110.445312 189.996094c-8.78125 0-15.660156 8.539062-15.660156 19.4375 0 10.898437 6.878906 19.4375 15.660156 19.4375s15.65625-8.539063 15.65625-19.4375c0-10.898438-6.878906-19.4375-15.65625-19.4375zm0 0" fill="#433f43"/><path d="m155.253906 124.269531s-4.960937-33.003906 26.675782-31.3125c30.894531 1.652344 30.636718 39.871094 8.695312 46.867188zm0 0" fill="#ffcb9d"/></svg>